<?xml version="1.0" encoding="UTF-8" standalone="no"?>
<!-- Created with Inkscape (http://www.inkscape.org/) -->

<svg
   width="133.36562mm"
   height="35.592266mm"
   viewBox="0 0 133.36561 35.592266"
   version="1.1"
   id="svg11439"
   inkscape:version="1.3.2 (091e20e, 2023-11-25, custom)"
   sodipodi:docname="Logo_Ambient6G_All_Color_Horizontal_LargeLetters.svg"
   inkscape:export-filename="Logo_Ambient6G_All_Color_Horizontal.png"
   inkscape:export-xdpi="300"
   inkscape:export-ydpi="300"
   xmlns:inkscape="http://www.inkscape.org/namespaces/inkscape"
   xmlns:sodipodi="http://sodipodi.sourceforge.net/DTD/sodipodi-0.dtd"
   xmlns="http://www.w3.org/2000/svg"
   xmlns:svg="http://www.w3.org/2000/svg">
  <sodipodi:namedview
     id="namedview11441"
     pagecolor="#ffffff"
     bordercolor="#000000"
     borderopacity="0.25"
     inkscape:showpageshadow="2"
     inkscape:pageopacity="0.0"
     inkscape:pagecheckerboard="0"
     inkscape:deskcolor="#d1d1d1"
     inkscape:document-units="mm"
     showgrid="false"
     inkscape:zoom="1.6819304"
     inkscape:cx="176.58281"
     inkscape:cy="-24.376752"
     inkscape:current-layer="g8829" />
  <defs
     id="defs11436" />
  <g
     inkscape:label="Laag 1"
     inkscape:groupmode="layer"
     id="layer1"
     transform="translate(-57.00445,-30.8911)">
    <g
       id="g8829"
       transform="translate(6.9860133,9.245901)">
      <g
         id="g11561"
         transform="matrix(0.33864987,0,0,0.33864987,45.321652,27.190304)"
         style="stroke-width:2.9529">
        <circle
           style="fill:#415d40;fill-opacity:1;stroke-width:3.54349"
           id="path234-9"
           cx="68.77253"
           cy="36.176094"
           r="28.904882" />
        <circle
           style="fill:#709775;fill-opacity:1;stroke-width:3.54349"
           id="path234-34"
           cx="72.647575"
           cy="32.339405"
           r="20.166058" />
        <circle
           style="fill:#8fb996;fill-opacity:1;stroke-width:3.54349"
           id="path234-3-9"
           cx="75.961197"
           cy="29.011034"
           r="12.455419" />
        <circle
           style="fill:#a1cca5;fill-opacity:1;stroke-width:3.54349"
           id="path234-3-1-0"
           cx="77.597046"
           cy="27.438475"
           r="8.4782934" />
        <circle
           style="fill:#bcdfbb;fill-opacity:1;stroke-width:3.54349"
           id="path234-3-2-8"
           cx="79.193054"
           cy="25.77186"
           r="5.6429276" />
        <circle
           style="fill:#d6f1d2;fill-opacity:1;stroke-width:3.54349"
           id="path234-3-2-6"
           cx="80.302734"
           cy="24.62467"
           r="3.7110105" />
      </g>
      <path
         style="font-weight:500;font-size:14.1111px;font-family:Montserrat;-inkscape-font-specification:'Montserrat Medium';fill:#415d40;stroke-width:0.5"
         d="m 80.871631,44.380219 4.473219,-9.877771 h 1.396999 l 4.48733,9.877771 H 89.747513 L 85.754072,35.29267 h 0.564444 l -3.993442,9.087549 z m 1.904999,-2.469443 0.380999,-1.128888 h 5.559774 l 0.409222,1.128888 z m 9.920108,2.469443 v -9.877771 h 1.15711 l 4.430886,7.464772 h -0.620889 l 4.374445,-7.464772 h 1.15711 l 0.0141,9.877771 h -1.35467 l -0.0141,-7.746995 h 0.32456 l -3.894667,6.547551 h -0.649111 l -3.922886,-6.547551 h 0.352778 v 7.746995 z m 13.476102,0 v -9.877771 h 4.43088 q 1.70745,0 2.62467,0.691444 0.91722,0.677333 0.91722,1.862666 0,0.804332 -0.36689,1.354665 -0.35278,0.550333 -0.95955,0.846666 -0.60678,0.296333 -1.31234,0.296333 l 0.254,-0.423333 q 0.84667,0 1.49578,0.296333 0.64911,0.296333 1.03011,0.874889 0.381,0.564444 0.381,1.41111 0,1.269999 -0.95955,1.975554 -0.94545,0.691444 -2.82222,0.691444 z m 1.41111,-1.143 h 3.24555 q 1.17122,0 1.79211,-0.39511 0.62089,-0.395111 0.62089,-1.241777 0,-0.860777 -0.62089,-1.255888 -0.62089,-0.395111 -1.79211,-0.395111 h -3.37255 v -1.142999 h 3.01977 q 1.07245,0 1.66511,-0.395111 0.59267,-0.395111 0.59267,-1.185332 0,-0.790222 -0.59267,-1.185333 -0.59266,-0.395111 -1.66511,-0.395111 h -2.89277 z m 9.27099,1.143 v -9.877771 h 1.41111 v 9.877771 z m 5.65854,-5.616218 h 5.08 v 1.199443 h -5.08 z m 0.127,4.388552 h 5.75733 v 1.227666 h -7.16844 v -9.877771 h 6.97089 v 1.227666 h -5.55978 z m 8.04333,1.227666 v -9.877771 h 1.15711 l 6.53344,8.113883 h -0.60677 v -8.113883 h 1.41111 v 9.877771 h -1.15711 l -6.53344,-8.113883 h 0.60677 v 8.113883 z m 13.41966,0 v -8.650105 h -3.38666 v -1.227666 h 8.17032 v 1.227666 h -3.38666 v 8.650105 z"
         id="text6349-5"
         aria-label="AMBIENT" />
      <path
         style="font-weight:500;font-size:14.1111px;font-family:Montserrat;-inkscape-font-specification:'Montserrat Medium';text-align:center;text-anchor:middle;fill:#709775;stroke-width:0.5"
         d="m 151.19757,41.092332 v -1.171221 h 3.79588 v 1.171221 z m 11.32414,3.400775 q -1.31233,0 -2.24366,-0.578555 -0.93133,-0.578555 -1.42522,-1.66511 -0.47978,-1.100665 -0.47978,-2.681109 0,-1.679221 0.59267,-2.836331 0.59266,-1.15711 1.651,-1.749776 1.05833,-0.592666 2.4271,-0.592666 0.70556,0 1.34056,0.141111 0.64911,0.141111 1.11478,0.437444 l -0.53623,1.100665 q -0.381,-0.26811 -0.87488,-0.366888 -0.47978,-0.09878 -1.016,-0.09878 -1.50989,0 -2.39889,0.945444 -0.889,0.931333 -0.889,2.779887 0,0.296333 0.0282,0.705555 0.0282,0.409222 0.14111,0.804332 l -0.47977,-0.479777 q 0.21166,-0.649111 0.66322,-1.086555 0.46566,-0.451555 1.10066,-0.663221 0.64911,-0.225778 1.397,-0.225778 0.98778,0 1.74978,0.366889 0.762,0.366888 1.19944,1.044221 0.43745,0.663222 0.43745,1.580443 0,0.945444 -0.46567,1.650999 -0.46567,0.705555 -1.25589,1.086555 -0.79022,0.380999 -1.778,0.380999 z m -0.0564,-1.142999 q 0.64911,0 1.12889,-0.239889 0.49389,-0.239888 0.77611,-0.663221 0.28222,-0.437444 0.28222,-1.015999 0,-0.874889 -0.60678,-1.382888 -0.60677,-0.522111 -1.651,-0.522111 -0.67733,0 -1.18533,0.254 -0.508,0.254 -0.80433,0.691444 -0.28222,0.423333 -0.28222,0.973666 0,0.507999 0.26811,0.945443 0.26811,0.423333 0.79022,0.691444 0.52211,0.268111 1.28411,0.268111 z m 9.87778,1.142999 q -1.143,0 -2.10255,-0.366888 -0.95956,-0.381 -1.66511,-1.058333 -0.70556,-0.691444 -1.10067,-1.608665 -0.39511,-0.917222 -0.39511,-2.017888 0,-1.100665 0.39511,-2.017887 0.39511,-0.917221 1.10067,-1.594554 0.71966,-0.691444 1.67922,-1.058333 0.95955,-0.380999 2.11666,-0.380999 1.17122,0 2.14489,0.380999 0.97366,0.381 1.651,1.142999 l -0.87489,0.874889 q -0.60678,-0.592667 -1.32644,-0.860778 -0.70556,-0.282222 -1.53811,-0.282222 -0.84667,0 -1.58045,0.282222 -0.71966,0.282222 -1.25589,0.790222 -0.52211,0.508 -0.81844,1.213555 -0.28222,0.691444 -0.28222,1.509887 0,0.804333 0.28222,1.509888 0.29633,0.691444 0.81844,1.213555 0.53623,0.507999 1.25589,0.790221 0.71967,0.282222 1.56633,0.282222 0.79023,0 1.50989,-0.239888 0.73378,-0.254 1.35467,-0.832555 l 0.80433,1.072443 q -0.73378,0.620889 -1.72155,0.945444 -0.97367,0.310444 -2.01789,0.310444 z m 2.38478,-1.439332 v -3.668886 h 1.35466 v 3.85233 z"
         id="text6349-5-9"
         aria-label="- 6G" />
    </g>
  </g>
</svg>
